<?xml version="1.0" encoding="utf-8"?>
<!-- Generator: Adobe Illustrator 16.0.0, SVG Export Plug-In . SVG Version: 6.00 Build 0)  -->
<!DOCTYPE svg PUBLIC "-//W3C//DTD SVG 1.1//EN" "http://www.w3.org/Graphics/SVG/1.1/DTD/svg11.dtd">
<svg version="1.1" id="Layer_1" xmlns="http://www.w3.org/2000/svg" xmlns:xlink="http://www.w3.org/1999/xlink" x="0px" y="0px"
	 width="175px" height="170px" viewBox="0 0 175 170" enable-background="new 0 0 175 170" xml:space="preserve">
<g>
	<g>
		
			<polyline fill-rule="evenodd" clip-rule="evenodd" fill="none" stroke="#192437" stroke-width="4" stroke-linecap="round" stroke-linejoin="round" stroke-miterlimit="10" points="
			118.336,41.3 118.336,64.37 140.319,64.37 		"/>
		
			<path fill-rule="evenodd" clip-rule="evenodd" fill="none" stroke="#192437" stroke-width="4" stroke-linecap="round" stroke-linejoin="round" stroke-miterlimit="10" d="
			M51.116,69.677V40.316h29.362"/>
		
			<line fill="none" stroke="#192437" stroke-width="4" stroke-linecap="round" stroke-linejoin="round" stroke-miterlimit="10" x1="112.489" y1="10.454" x2="115.75" y2="23.161"/>
		
			<line fill="none" stroke="#192437" stroke-width="4" stroke-linecap="round" stroke-linejoin="round" stroke-miterlimit="10" x1="158.85" y1="23.161" x2="150.092" y2="31.917"/>
		
			<line fill="none" stroke="#192437" stroke-width="4" stroke-linecap="round" stroke-linejoin="round" stroke-miterlimit="10" x1="158.85" y1="65.916" x2="171.213" y2="69.178"/>
		
			<line fill="none" stroke="#192437" stroke-width="4" stroke-linecap="round" stroke-linejoin="round" stroke-miterlimit="10" x1="133.952" y1="23.161" x2="135.669" y2="16.233"/>
		
			<line fill="none" stroke="#192437" stroke-width="4" stroke-linecap="round" stroke-linejoin="round" stroke-miterlimit="10" x1="158.162" y1="47.714" x2="165.03" y2="46.169"/>
		
			<polyline fill-rule="evenodd" clip-rule="evenodd" fill="none" stroke="#192437" stroke-width="4" stroke-linecap="round" stroke-linejoin="round" stroke-miterlimit="10" points="
			51.116,83.52 51.116,166 60.233,156.883 69.351,166 78.467,156.883 87.584,166 96.702,156.883 105.819,166 114.937,156.883 
			124.054,166 133.17,156.883 142.287,166 142.287,64.268 118.336,40.316 94.321,40.316 		"/>
		<g>
			<g>
				
					<line fill="none" stroke="#E2E2E2" stroke-width="4" stroke-linecap="round" stroke-linejoin="round" stroke-miterlimit="10" x1="79.312" y1="88.873" x2="89.799" y2="99.359"/>
				
					<line fill="none" stroke="#E2E2E2" stroke-width="4" stroke-linecap="round" stroke-linejoin="round" stroke-miterlimit="10" x1="89.799" y1="88.873" x2="79.312" y2="99.359"/>
			</g>
			<g>
				
					<line fill="none" stroke="#E2E2E2" stroke-width="4" stroke-linecap="round" stroke-linejoin="round" stroke-miterlimit="10" x1="103.604" y1="88.873" x2="114.091" y2="99.359"/>
				
					<line fill="none" stroke="#E2E2E2" stroke-width="4" stroke-linecap="round" stroke-linejoin="round" stroke-miterlimit="10" x1="114.091" y1="88.873" x2="103.604" y2="99.359"/>
			</g>
			<path fill="none" stroke="#E2E2E2" stroke-width="4" stroke-linecap="round" stroke-linejoin="round" stroke-miterlimit="10" d="
				M110.587,125.095c-1.749-2.373-7.299-4.108-13.885-4.108c-6.588,0-12.136,1.735-13.886,4.108"/>
		</g>
	</g>
	<g>
		
			<circle fill-rule="evenodd" clip-rule="evenodd" fill="none" stroke="#EB2141" stroke-width="4" stroke-linecap="round" stroke-linejoin="round" stroke-miterlimit="10" cx="51.116" cy="40.316" r="36.316"/>
		
			<path fill-rule="evenodd" clip-rule="evenodd" fill="none" stroke="#EB2141" stroke-width="4" stroke-linecap="round" stroke-linejoin="round" stroke-miterlimit="10" d="
			M26.197,29.789c2.818-6.662,8.229-11.959,14.969-14.627"/>
		
			<path fill-rule="evenodd" clip-rule="evenodd" fill="none" stroke="#EB2141" stroke-width="4" stroke-linecap="round" stroke-linejoin="round" stroke-miterlimit="10" d="
			M28.836,69.036L11.838,86.034c-1.508,1.509-3.955,1.509-5.464,0l-1.457-1.457c-1.508-1.508-1.508-3.955,0-5.463l16.999-16.999"/>
		
			<line fill="none" stroke="#EB2141" stroke-width="4" stroke-linecap="round" stroke-linejoin="round" stroke-miterlimit="10" x1="16.312" y1="67.546" x2="23.233" y2="74.467"/>
	</g>
</g>
</svg>
