<?xml version="1.0" encoding="utf-8"?>
<!-- Generator: Adobe Illustrator 16.0.0, SVG Export Plug-In . SVG Version: 6.00 Build 0)  -->
<!DOCTYPE svg PUBLIC "-//W3C//DTD SVG 1.1//EN" "http://www.w3.org/Graphics/SVG/1.1/DTD/svg11.dtd">
<svg version="1.1" id="Layer_1" xmlns="http://www.w3.org/2000/svg" xmlns:xlink="http://www.w3.org/1999/xlink" x="0px" y="0px"
	 width="188px" height="48px" viewBox="0 0 188 48" enable-background="new 0 0 188 48" xml:space="preserve">
<g>
	<g>
		<path fill="#FFFFFF" d="M19.145,13.889c-1.275-1.555-3.203-2.488-5.162-2.488c-4.385,0-6.903,4.043-6.903,8.085
			c0,3.95,2.612,7.899,6.872,7.899c1.959,0,3.918-1.025,5.193-2.488v5.442c-1.71,0.81-3.421,1.399-5.317,1.399
			c-6.593,0-11.476-5.691-11.476-12.159c0-6.655,4.696-12.532,11.568-12.532c1.835,0,3.639,0.498,5.225,1.368V13.889z"/>
		<path fill="#FFFFFF" d="M39.64,31.117h-5.536l-5.69-9.454h-0.062v9.454h-4.571V7.67h6.188c4.634,0,7.837,2.052,7.837,7.059
			c0,2.985-1.648,5.971-4.789,6.499L39.64,31.117z M28.351,18.46h0.591c2.52,0,4.292-0.746,4.292-3.607
			c0-2.892-1.835-3.452-4.261-3.452h-0.622V18.46z"/>
		<path fill="#FFFFFF" d="M47.539,26.173l-1.929,4.944h-4.819l9.143-24.069h3.545l8.894,24.069H57.49l-1.804-4.944H47.539z
			 M51.488,13.92h-0.062l-2.581,8.521h5.566L51.488,13.92z"/>
		<path fill="#FFFFFF" d="M69.962,31.117h-4.571V7.67h4.571V31.117z"/>
		<path fill="#FFFFFF" d="M88.278,19.362v3.576H80.69v-3.576H88.278z"/>
		<path fill="#FFFFFF" d="M98.914,7.67h4.57v13.123c0,2.893,0.25,6.966,4.137,6.966c3.888,0,4.137-4.073,4.137-6.966V7.67h4.571
			v14.025c0,5.722-2.427,10.044-8.708,10.044s-8.707-4.322-8.707-10.044V7.67z"/>
		<path fill="#FFFFFF" d="M121.182,7.048h3.297l12.346,16.39h0.062V7.67h4.57v23.914h-3.297l-12.346-16.389h-0.062v15.922h-4.57
			V7.048L121.182,7.048z"/>
		<path fill="#FFFFFF" d="M162.264,31.117h-5.535l-5.691-9.454h-0.062v9.454h-4.57V7.67h6.188c4.635,0,7.838,2.052,7.838,7.059
			c0,2.985-1.648,5.971-4.789,6.499L162.264,31.117z M150.975,18.46h0.592c2.519,0,4.291-0.746,4.291-3.607
			c0-2.892-1.836-3.452-4.262-3.452h-0.621V18.46z"/>
		<path fill="#FFFFFF" d="M165.373,7.048h3.296l12.347,16.39h0.062V7.67h4.571v23.914h-3.297l-12.347-16.389h-0.062v15.922h-4.571
			L165.373,7.048L165.373,7.048z"/>
	</g>
	<g>
		<path fill="#FFFFFF" d="M7.615,39.405c-0.403-0.358-0.955-0.552-1.485-0.552c-1.261,0-2.224,1.052-2.224,2.297
			c0,1.231,0.955,2.283,2.208,2.283c0.552,0,1.082-0.209,1.5-0.582v0.828c-0.433,0.254-0.985,0.396-1.478,0.396
			c-1.604,0-2.933-1.275-2.933-2.902c0-1.664,1.336-2.962,2.992-2.962c0.493,0,0.993,0.119,1.418,0.38v0.813H7.615z"/>
		<path fill="#FFFFFF" d="M8.774,42.323c0.007,0.597,0.41,1.155,1.052,1.155c0.515,0,0.791-0.261,1.045-0.679l0.567,0.32
			c-0.328,0.604-0.94,0.955-1.619,0.955c-1.067,0-1.716-0.806-1.716-1.835c0-1.075,0.575-1.881,1.701-1.881
			c1.112,0,1.634,0.82,1.634,1.857v0.104H8.774V42.323z M10.766,41.814c-0.082-0.521-0.425-0.873-0.963-0.873
			c-0.522,0-0.91,0.373-0.992,0.873H10.766z"/>
		<path fill="#FFFFFF" d="M12.68,40.936h0.015c0.209-0.373,0.627-0.574,1.052-0.574c0.985,0,1.239,0.664,1.239,1.515v2.082h-0.672
			v-2c0-0.597-0.082-1-0.769-1c-0.865,0-0.865,0.762-0.865,1.396v1.604h-0.672v-3.492h0.672V40.936z"/>
		<path fill="#FFFFFF" d="M16.676,43.957h-0.671v-2.865h-0.366v-0.627h0.366V39.13h0.671v1.335h0.657v0.627h-0.657V43.957z"/>
		<path fill="#FFFFFF" d="M18.413,41.032h0.022c0.164-0.41,0.507-0.673,0.955-0.673c0.194,0,0.388,0.067,0.552,0.173l-0.306,0.61
			c-0.12-0.104-0.254-0.142-0.411-0.142c-0.724,0-0.813,0.672-0.813,1.239v1.716h-0.671v-3.492h0.671L18.413,41.032L18.413,41.032z"
			/>
		<path fill="#FFFFFF" d="M23.73,42.219c0,1.053-0.821,1.857-1.865,1.857c-1.044,0-1.865-0.805-1.865-1.857s0.821-1.857,1.865-1.857
			C22.909,40.361,23.73,41.166,23.73,42.219z M20.671,42.219c0,0.656,0.53,1.217,1.194,1.217c0.664,0,1.194-0.561,1.194-1.217
			c0-0.664-0.53-1.217-1.194-1.217C21.201,41.002,20.671,41.555,20.671,42.219z"/>
		<path fill="#FFFFFF" d="M29.097,43.412h-0.015c-0.269,0.396-0.694,0.664-1.187,0.664c-1.074,0-1.671-0.889-1.671-1.889
			c0-0.955,0.634-1.828,1.642-1.828c0.522,0,0.94,0.27,1.216,0.688h0.015V37.48h0.671v6.477h-0.671V43.412z M29.134,42.211
			c0-0.679-0.41-1.254-1.134-1.254c-0.694,0-1.104,0.604-1.104,1.254c0,0.656,0.396,1.27,1.104,1.27
			C28.731,43.479,29.134,42.896,29.134,42.211z"/>
		<path fill="#FFFFFF" d="M31.04,42.323c0.007,0.597,0.41,1.155,1.052,1.155c0.515,0,0.791-0.261,1.045-0.679l0.567,0.32
			c-0.328,0.604-0.94,0.955-1.619,0.955c-1.067,0-1.716-0.806-1.716-1.835c0-1.075,0.575-1.881,1.701-1.881
			c1.112,0,1.634,0.82,1.634,1.857v0.104H31.04V42.323z M33.032,41.814c-0.082-0.521-0.425-0.873-0.963-0.873
			c-0.522,0-0.91,0.373-0.992,0.873H33.032z"/>
		<path fill="#FFFFFF" d="M40.003,43.957h-0.851l-1.656-2.38h-0.291v2.38h-0.702v-5.626h0.851c0.5,0,1.037,0.008,1.485,0.261
			c0.47,0.276,0.739,0.807,0.739,1.344c0,0.807-0.537,1.479-1.351,1.574L40.003,43.957z M37.205,40.995h0.224
			c0.716,0,1.492-0.136,1.492-1.03c0-0.88-0.835-1.007-1.529-1.007h-0.187V40.995z"/>
		<path fill="#FFFFFF" d="M40.88,42.323c0.007,0.597,0.41,1.155,1.052,1.155c0.515,0,0.791-0.261,1.045-0.679l0.567,0.32
			c-0.328,0.604-0.94,0.955-1.619,0.955c-1.067,0-1.716-0.806-1.716-1.835c0-1.075,0.575-1.881,1.701-1.881
			c1.112,0,1.634,0.82,1.634,1.857v0.104H40.88V42.323z M42.872,41.814c-0.082-0.521-0.425-0.873-0.963-0.873
			c-0.522,0-0.91,0.373-0.992,0.873H42.872z"/>
		<path fill="#FFFFFF" d="M46.681,41.457c-0.269-0.307-0.597-0.471-1-0.471c-0.656,0-1.164,0.582-1.164,1.225
			c0,0.717,0.5,1.238,1.208,1.238c0.388,0,0.702-0.18,0.955-0.463v0.857c-0.306,0.164-0.612,0.231-0.962,0.231
			c-1.03,0-1.873-0.791-1.873-1.835c0-1.082,0.836-1.881,1.91-1.881c0.313,0,0.657,0.074,0.925,0.23L46.681,41.457L46.681,41.457z"
			/>
		<path fill="#FFFFFF" d="M48.044,40.465v1.934c0,0.56,0.142,1.052,0.806,1.052s0.806-0.492,0.806-1.052v-1.934h0.672v2.008
			c0,0.955-0.448,1.604-1.478,1.604c-1.03,0-1.478-0.647-1.478-1.604v-2.008H48.044L48.044,40.465z"/>
		<path fill="#FFFFFF" d="M51.935,41.032h0.022c0.164-0.41,0.507-0.673,0.955-0.673c0.194,0,0.388,0.067,0.552,0.173l-0.306,0.61
			c-0.12-0.104-0.254-0.142-0.411-0.142c-0.724,0-0.813,0.672-0.813,1.239v1.716h-0.671v-3.492h0.671L51.935,41.032L51.935,41.032z"
			/>
		<path fill="#FFFFFF" d="M55.238,41.264c-0.082-0.172-0.253-0.307-0.448-0.307c-0.187,0-0.365,0.148-0.365,0.344
			c0,0.307,0.403,0.44,0.813,0.627c0.411,0.188,0.806,0.44,0.806,0.992c0,0.664-0.552,1.156-1.202,1.156
			c-0.507,0-1.022-0.291-1.208-0.783l0.575-0.261c0.142,0.261,0.313,0.446,0.634,0.446c0.284,0,0.53-0.193,0.53-0.492
			c0-0.187-0.089-0.275-0.246-0.381l-0.657-0.351c-0.388-0.209-0.671-0.403-0.671-0.881c0-0.565,0.462-1.015,1.03-1.015
			c0.425,0,0.769,0.23,0.955,0.611L55.238,41.264z"/>
		<path fill="#FFFFFF" d="M60.115,42.219c0,1.053-0.821,1.857-1.865,1.857s-1.865-0.807-1.865-1.857
			c0-1.053,0.821-1.857,1.865-1.857S60.115,41.166,60.115,42.219z M57.056,42.219c0,0.656,0.53,1.217,1.194,1.217
			s1.194-0.561,1.194-1.217c0-0.664-0.53-1.217-1.194-1.217S57.056,41.555,57.056,42.219z"/>
		<path fill="#FFFFFF" d="M62.125,41.264c-0.082-0.172-0.253-0.307-0.448-0.307c-0.187,0-0.365,0.148-0.365,0.344
			c0,0.307,0.403,0.44,0.813,0.627c0.411,0.188,0.806,0.44,0.806,0.992c0,0.664-0.552,1.156-1.202,1.156
			c-0.507,0-1.022-0.291-1.208-0.783l0.575-0.261c0.142,0.261,0.313,0.446,0.634,0.446c0.284,0,0.53-0.193,0.53-0.492
			c0-0.187-0.089-0.275-0.246-0.381l-0.657-0.351c-0.388-0.209-0.671-0.403-0.671-0.881c0-0.565,0.462-1.015,1.03-1.015
			c0.425,0,0.769,0.23,0.955,0.611L62.125,41.264z"/>
		<path fill="#FFFFFF" d="M66.359,41.047h0.015c0.276-0.418,0.694-0.688,1.216-0.688c1.007,0,1.642,0.873,1.642,1.828
			c0,1-0.597,1.889-1.671,1.889c-0.492,0-0.918-0.27-1.187-0.664h-0.015v2.545h-0.672v-5.492h0.672V41.047z M68.56,42.211
			c0-0.679-0.411-1.254-1.134-1.254c-0.694,0-1.104,0.604-1.104,1.254c0,0.656,0.396,1.27,1.104,1.27
			C68.157,43.479,68.56,42.896,68.56,42.211z"/>
		<path fill="#FFFFFF" d="M73.16,43.957h-0.671v-0.545h-0.015c-0.269,0.396-0.687,0.664-1.187,0.664
			c-1.067,0-1.671-0.889-1.671-1.889c0-0.955,0.634-1.828,1.649-1.828c0.515,0,0.933,0.27,1.209,0.688h0.015v-0.582h0.671V43.957z
			 M72.525,42.211c0-0.679-0.41-1.254-1.134-1.254c-0.694,0-1.104,0.604-1.104,1.254c0,0.656,0.396,1.27,1.104,1.27
			C72.123,43.479,72.525,42.896,72.525,42.211z"/>
		<path fill="#FFFFFF" d="M74.745,41.032h0.022c0.164-0.41,0.507-0.673,0.955-0.673c0.194,0,0.388,0.067,0.552,0.173l-0.306,0.61
			c-0.12-0.104-0.254-0.142-0.411-0.142c-0.724,0-0.813,0.672-0.813,1.239v1.716h-0.671v-3.492h0.671L74.745,41.032L74.745,41.032z"
			/>
		<path fill="#FFFFFF" d="M79.921,43.957H79.25v-0.545h-0.015c-0.269,0.396-0.687,0.664-1.187,0.664
			c-1.067,0-1.671-0.889-1.671-1.889c0-0.955,0.634-1.828,1.649-1.828c0.515,0,0.933,0.27,1.209,0.688h0.015v-0.582h0.671V43.957z
			 M79.287,42.211c0-0.679-0.41-1.254-1.134-1.254c-0.694,0-1.104,0.604-1.104,1.254c0,0.656,0.396,1.27,1.104,1.27
			C78.884,43.479,79.287,42.896,79.287,42.211z"/>
		<path fill="#FFFFFF" d="M83.347,42.323c0.007,0.597,0.41,1.155,1.052,1.155c0.515,0,0.791-0.261,1.045-0.679l0.567,0.32
			c-0.328,0.604-0.94,0.955-1.619,0.955c-1.067,0-1.716-0.806-1.716-1.835c0-1.075,0.575-1.881,1.701-1.881
			c1.112,0,1.634,0.82,1.634,1.857v0.104h-2.664V42.323z M85.339,41.814c-0.082-0.521-0.425-0.873-0.963-0.873
			c-0.522,0-0.91,0.373-0.992,0.873H85.339z"/>
		<path fill="#FFFFFF" d="M87.283,43.957h-0.671V37.48h0.671V43.957z"/>
		<path fill="#FFFFFF" d="M91.264,42.547l-0.642,1.41h-0.753l2.686-5.865l2.686,5.865h-0.753l-0.642-1.41H91.264z M92.555,39.629
			l-1,2.276h2L92.555,39.629z"/>
		<path fill="#FFFFFF" d="M96.25,41.047h0.016c0.275-0.418,0.693-0.688,1.217-0.688c1.006,0,1.642,0.873,1.642,1.828
			c0,1-0.599,1.889-1.672,1.889c-0.492,0-0.918-0.27-1.187-0.664H96.25v2.545h-0.672v-5.492h0.672V41.047z M98.451,42.211
			c0-0.679-0.41-1.254-1.133-1.254c-0.695,0-1.105,0.604-1.105,1.254c0,0.656,0.396,1.27,1.105,1.27
			C98.049,43.479,98.451,42.896,98.451,42.211z"/>
		<path fill="#FFFFFF" d="M100.492,41.032h0.021c0.164-0.41,0.508-0.673,0.954-0.673c0.195,0,0.39,0.067,0.554,0.173l-0.308,0.61
			c-0.118-0.104-0.252-0.142-0.409-0.142c-0.724,0-0.812,0.672-0.812,1.239v1.716H99.82v-3.492h0.672V41.032z"/>
		<path fill="#FFFFFF" d="M102.795,42.323c0.008,0.597,0.412,1.155,1.053,1.155c0.516,0,0.791-0.261,1.045-0.679l0.566,0.32
			c-0.328,0.604-0.939,0.955-1.619,0.955c-1.066,0-1.715-0.806-1.715-1.835c0-1.075,0.574-1.881,1.701-1.881
			c1.111,0,1.633,0.82,1.633,1.857v0.104h-2.664V42.323z M104.787,41.814c-0.082-0.521-0.424-0.873-0.961-0.873
			c-0.523,0-0.91,0.373-0.992,0.873H104.787z"/>
		<path fill="#FFFFFF" d="M106.701,40.936h0.016c0.209-0.373,0.627-0.574,1.053-0.574c0.984,0,1.238,0.664,1.238,1.515v2.082h-0.672
			v-2c0-0.597-0.082-1-0.768-1c-0.867,0-0.867,0.762-0.867,1.396v1.604h-0.67v-3.492h0.67V40.936z"/>
		<path fill="#FFFFFF" d="M112.533,43.412h-0.016c-0.269,0.396-0.693,0.664-1.187,0.664c-1.074,0-1.672-0.889-1.672-1.889
			c0-0.955,0.635-1.828,1.644-1.828c0.521,0,0.938,0.27,1.215,0.688h0.016V37.48h0.672v6.477h-0.672V43.412z M112.57,42.211
			c0-0.679-0.41-1.254-1.135-1.254c-0.693,0-1.104,0.604-1.104,1.254c0,0.656,0.396,1.27,1.104,1.27
			C112.168,43.479,112.57,42.896,112.57,42.211z"/>
		<path fill="#FFFFFF" d="M115.021,38.868c0,0.254-0.209,0.455-0.463,0.455s-0.463-0.201-0.463-0.455c0-0.261,0.209-0.47,0.463-0.47
			S115.021,38.607,115.021,38.868z M114.895,43.957h-0.672v-3.492h0.672V43.957z"/>
		<path fill="#FFFFFF" d="M119.094,43.33v0.627h-3.574l2.365-2.865h-1.963v-0.627h3.268l-2.364,2.865H119.094z"/>
		<path fill="#FFFFFF" d="M122.934,43.957h-0.672v-0.545h-0.016c-0.268,0.396-0.686,0.664-1.186,0.664
			c-1.066,0-1.672-0.889-1.672-1.889c0-0.955,0.635-1.828,1.647-1.828c0.517,0,0.935,0.27,1.209,0.688h0.017v-0.582h0.672V43.957
			L122.934,43.957z M122.299,42.211c0-0.679-0.41-1.254-1.135-1.254c-0.693,0-1.104,0.604-1.104,1.254
			c0,0.656,0.395,1.27,1.104,1.27C121.896,43.479,122.299,42.896,122.299,42.211z"/>
		<path fill="#FFFFFF" d="M124.75,38.868c0,0.254-0.209,0.455-0.463,0.455s-0.463-0.201-0.463-0.455c0-0.261,0.209-0.47,0.463-0.47
			S124.75,38.607,124.75,38.868z M124.623,45.957h-0.672v-5.492h0.672V45.957z"/>
		<path fill="#FFFFFF" d="M126.098,42.323c0.008,0.597,0.412,1.155,1.053,1.155c0.517,0,0.791-0.261,1.045-0.679l0.566,0.32
			c-0.328,0.604-0.939,0.955-1.619,0.955c-1.065,0-1.715-0.806-1.715-1.835c0-1.075,0.574-1.881,1.701-1.881
			c1.111,0,1.633,0.82,1.633,1.857v0.104h-2.664V42.323z M128.09,41.814c-0.082-0.521-0.424-0.873-0.961-0.873
			c-0.523,0-0.91,0.373-0.992,0.873H128.09z"/>
		<path fill="#FFFFFF" d="M130.928,40.465h0.783l1.178,2.217l1.098-2.217h0.755l-2.828,5.492h-0.763l1.373-2.598L130.928,40.465z"/>
		<path fill="#FFFFFF" d="M137.951,43.957h-0.672V37.48h0.672V43.957z"/>
		<path fill="#FFFFFF" d="M142.18,43.957h-0.672v-0.545h-0.016c-0.268,0.396-0.686,0.664-1.186,0.664
			c-1.066,0-1.673-0.889-1.673-1.889c0-0.955,0.636-1.828,1.647-1.828c0.517,0,0.935,0.27,1.21,0.688h0.016v-0.582h0.673V43.957
			L142.18,43.957z M141.545,42.211c0-0.679-0.41-1.254-1.135-1.254c-0.693,0-1.104,0.604-1.104,1.254c0,0.656,0.395,1.27,1.104,1.27
			C141.143,43.479,141.545,42.896,141.545,42.211z"/>
		<path fill="#FFFFFF" d="M145.955,43.957h-0.701v-5.626h0.701V43.957z"/>
		<path fill="#FFFFFF" d="M147.604,40.936h0.017c0.209-0.373,0.625-0.574,1.051-0.574c0.986,0,1.238,0.664,1.238,1.515v2.082h-0.671
			v-2c0-0.597-0.081-1-0.77-1c-0.865,0-0.865,0.762-0.865,1.396v1.604h-0.672v-3.492h0.672V40.936z"/>
		<path fill="#FFFFFF" d="M152.025,42.645l1.008-2.18h0.752l-1.76,3.611l-1.754-3.611h0.754L152.025,42.645z"/>
		<path fill="#FFFFFF" d="M154.551,42.323c0.008,0.597,0.41,1.155,1.053,1.155c0.515,0,0.791-0.261,1.043-0.679l0.568,0.32
			c-0.328,0.604-0.941,0.955-1.619,0.955c-1.068,0-1.717-0.806-1.717-1.835c0-1.075,0.574-1.881,1.701-1.881
			c1.111,0,1.635,0.82,1.635,1.857v0.104h-2.664V42.323z M156.543,41.814c-0.082-0.521-0.426-0.873-0.963-0.873
			c-0.521,0-0.91,0.373-0.992,0.873H156.543z"/>
		<path fill="#FFFFFF" d="M159.188,41.264c-0.082-0.172-0.254-0.307-0.446-0.307c-0.187,0-0.365,0.148-0.365,0.344
			c0,0.307,0.401,0.44,0.812,0.627c0.41,0.188,0.808,0.44,0.808,0.992c0,0.664-0.554,1.156-1.201,1.156
			c-0.508,0-1.022-0.291-1.209-0.783l0.574-0.261c0.144,0.261,0.313,0.446,0.635,0.446c0.283,0,0.528-0.193,0.528-0.492
			c0-0.187-0.09-0.275-0.245-0.381l-0.656-0.351c-0.39-0.209-0.672-0.403-0.672-0.881c0-0.565,0.463-1.015,1.028-1.015
			c0.427,0,0.771,0.23,0.955,0.611L159.188,41.264z"/>
		<path fill="#FFFFFF" d="M161.418,43.957h-0.672v-2.865h-0.365v-0.627h0.365V39.13h0.672v1.335h0.656v0.627h-0.656V43.957z"/>
		<path fill="#FFFFFF" d="M163.385,38.868c0,0.254-0.209,0.455-0.463,0.455s-0.463-0.201-0.463-0.455c0-0.261,0.209-0.47,0.463-0.47
			S163.385,38.607,163.385,38.868z M163.258,43.957h-0.672v-3.492h0.672V43.957z"/>
		<path fill="#FFFFFF" d="M167.598,43.891c0,1.2-0.342,2.066-1.701,2.066c-0.969,0-1.67-0.598-1.686-1.582h0.672
			c0,0.627,0.432,0.984,1.045,0.984c0.828,0,1-0.566,1-1.283v-0.664h-0.016c-0.27,0.396-0.693,0.664-1.186,0.664
			c-1.076,0-1.672-0.889-1.672-1.889c0-0.955,0.633-1.828,1.641-1.828c0.522,0,0.941,0.27,1.217,0.701h0.016v-0.597h0.67V43.891
			L167.598,43.891z M166.965,42.211c0-0.679-0.41-1.254-1.135-1.254c-0.693,0-1.104,0.604-1.104,1.254
			c0,0.656,0.395,1.27,1.104,1.27C166.561,43.479,166.965,42.896,166.965,42.211z"/>
		<path fill="#FFFFFF" d="M171.744,43.957h-0.672v-0.545h-0.016c-0.269,0.396-0.687,0.664-1.187,0.664
			c-1.065,0-1.673-0.889-1.673-1.889c0-0.955,0.636-1.828,1.648-1.828c0.516,0,0.934,0.27,1.209,0.688h0.016v-0.582h0.673
			L171.744,43.957L171.744,43.957z M171.109,42.211c0-0.679-0.41-1.254-1.135-1.254c-0.693,0-1.104,0.604-1.104,1.254
			c0,0.656,0.396,1.27,1.104,1.27C170.707,43.479,171.109,42.896,171.109,42.211z"/>
		<path fill="#FFFFFF" d="M175.18,41.457c-0.27-0.307-0.598-0.471-1-0.471c-0.656,0-1.164,0.582-1.164,1.225
			c0,0.717,0.5,1.238,1.209,1.238c0.387,0,0.701-0.18,0.955-0.463v0.857c-0.307,0.164-0.611,0.231-0.963,0.231
			c-1.029,0-1.873-0.791-1.873-1.835c0-1.082,0.836-1.881,1.91-1.881c0.314,0,0.656,0.074,0.926,0.23V41.457z"/>
		<path fill="#FFFFFF" d="M176.848,38.868c0,0.254-0.209,0.455-0.463,0.455s-0.463-0.201-0.463-0.455c0-0.261,0.209-0.47,0.463-0.47
			S176.848,38.607,176.848,38.868z M176.721,43.957h-0.672v-3.492h0.672V43.957z"/>
		<path fill="#FFFFFF" d="M181.211,42.219c0,1.053-0.82,1.857-1.865,1.857s-1.865-0.807-1.865-1.857c0-1.053,0.82-1.857,1.865-1.857
			S181.211,41.166,181.211,42.219z M178.15,42.219c0,0.656,0.531,1.217,1.195,1.217c0.663,0,1.192-0.561,1.192-1.217
			c0-0.664-0.529-1.217-1.192-1.217C178.682,41.002,178.15,41.555,178.15,42.219z M180.42,38.809l-1.225,1.111l-0.328-0.201
			l0.934-1.238L180.42,38.809z"/>
		<path fill="#FFFFFF" d="M182.49,40.936h0.016c0.209-0.373,0.625-0.574,1.051-0.574c0.986,0,1.238,0.664,1.238,1.515v2.082h-0.67
			v-2c0-0.597-0.082-1-0.77-1c-0.865,0-0.865,0.762-0.865,1.396v1.604h-0.672v-3.492h0.672V40.936z"/>
	</g>
</g>
</svg>
