<?xml version="1.0" encoding="utf-8"?>
<!-- Generator: Adobe Illustrator 16.0.0, SVG Export Plug-In . SVG Version: 6.00 Build 0)  -->
<!DOCTYPE svg PUBLIC "-//W3C//DTD SVG 1.1//EN" "http://www.w3.org/Graphics/SVG/1.1/DTD/svg11.dtd">
<svg version="1.1" id="Layer_1" xmlns="http://www.w3.org/2000/svg" xmlns:xlink="http://www.w3.org/1999/xlink" x="0px" y="0px"
	 width="154px" height="48px" viewBox="0 0 154 48" enable-background="new 0 0 154 48" xml:space="preserve">
<g id="_x31_2KcpC_2_">
	<g>
		<path fill-rule="evenodd" clip-rule="evenodd" fill="#FFFFFF" d="M39.408,29.928c-0.688,0.711-1.454,1.503-2.23,2.307
			c-1.917-1.924-3.774-3.788-5.539-5.559c-1.077,1.079-2.091,2.095-3.204,3.209c1.71,1.714,3.593,3.6,5.444,5.453
			c-0.796,0.786-1.541,1.521-2.4,2.368c-0.945-0.86-1.854-1.83-2.799-2.763c-0.911-0.901-1.813-1.813-2.823-2.82
			c-1.084,1.002-2.042,1.999-3.071,3.051c0.739,1.143,1.802,1.966,2.72,2.915c0.896,0.926,1.842,1.803,2.796,2.73
			c-0.532,1.131-1.571,1.663-2.216,2.55c-1.92-1.941-3.77-3.814-5.723-5.788c-2.023,2.02-3.94,3.935-5.813,5.807
			c-0.875-0.881-1.646-1.656-2.333-2.35c8.271-8.261,16.586-16.565,25.008-24.977c0.884,0.396,1.537,1.265,2.225,2.185
			c-0.749,1.19-1.828,2.01-2.747,2.969c-0.891,0.929-1.829,1.813-2.75,2.723c1.83,1.918,3.604,3.775,5.374,5.637
			C39.358,29.608,39.352,29.68,39.408,29.928z"/>
		<path fill-rule="evenodd" clip-rule="evenodd" fill="#FFFFFF" d="M28.187,6.935c-8.37,8.354-16.657,16.628-25.045,25
			c-0.751-0.535-1.386-1.384-2.283-2.172c1.938-1.944,3.822-3.834,5.737-5.756c-1.898-1.885-3.764-3.738-5.59-5.552
			c0.798-0.775,1.542-1.498,2.392-2.323c0.95,0.566,1.749,1.658,2.705,2.569c0.933,0.889,1.816,1.829,2.781,2.808
			c1.267-0.826,2.102-2.012,3.302-3.056c-1.925-1.934-3.768-3.782-5.692-5.714c0.717-0.907,1.521-1.586,2.354-2.449
			c1.917,1.917,3.805,3.805,5.661,5.661c1.052-1.056,2.078-2.086,3.102-3.113c-1.814-1.807-3.678-3.662-5.644-5.621
			c0.889-0.911,1.691-1.733,2.472-2.533c1.919,1.92,3.772,3.774,5.737,5.74c1.992-1.992,3.875-3.875,5.812-5.812
			C26.793,5.453,27.693,6.104,28.187,6.935z"/>
		<path fill-rule="evenodd" clip-rule="evenodd" fill="#FFFFFF" d="M31.537,10.292c0.788,0.851,1.499,1.616,2.218,2.393
			C31.336,15.565,10.16,36.815,8.769,37.717c-0.708-0.745-1.427-1.503-2.141-2.253C7.339,34.272,27.116,14.288,31.537,10.292z"/>
		<path fill-rule="evenodd" clip-rule="evenodd" fill="#FFFFFF" d="M70.976,40.967c-0.92,0-1.69,0-2.465,0
			c-0.294-1.12-0.375-13.044-0.092-15.423c1.029,0,2.072,0,3.235,0c2.388,3.854,4.802,7.754,7.432,11.999
			c-0.128-2.323-0.274-4.259-0.328-6.194c-0.053-1.895-0.011-3.793-0.011-5.787c0.531-0.041,0.962-0.091,1.393-0.099
			c0.382-0.008,0.764,0.032,1.228,0.054c0,5.149,0,10.228,0,15.44c-1.024,0.17-2.071,0.065-3.235,0.062
			c-2.402-3.886-4.823-7.804-7.245-11.722c-0.069,0.013-0.14,0.023-0.21,0.034c0.1,1.909,0.238,3.813,0.288,5.724
			C71.014,36.958,70.976,38.863,70.976,40.967z"/>
		<path fill-rule="evenodd" clip-rule="evenodd" fill="#FFFFFF" d="M109.681,37.279c0-4.143,0-7.884,0-11.722
			c0.801,0,1.506,0,2.224,0c0.279,1.102,0.356,13.177,0.077,15.405c-0.978,0-1.971,0-3.106,0c-1.148-1.841-2.356-3.764-3.55-5.697
			c-1.163-1.887-2.312-3.783-3.658-5.986c0,4.095,0,7.83,0,11.663c-0.92,0-1.73,0-2.626,0c0-5.111,0-10.191,0-15.377
			c1.106,0,2.204,0,3.396,0C104.754,29.311,107.113,33.127,109.681,37.279z"/>
		<path fill-rule="evenodd" clip-rule="evenodd" fill="#FFFFFF" d="M109.742,14.502c0.152,2.026-0.302,3.771-1.36,5.348
			c-1.066,1.589-2.646,2.39-4.471,2.621c-1.319,0.166-2.66,0.104-3.978-0.286c-1.779-0.529-2.937-1.688-3.729-3.31
			c-0.596-1.222-0.868-2.582-0.878-3.856c-0.016-2.33,0.314-4.665,2.146-6.453c1.792-1.746,3.977-2.16,6.329-1.838
			c0.912,0.124,1.839,0.452,2.657,0.884c2.117,1.115,2.878,3.143,3.269,5.342C109.824,13.496,109.742,14.072,109.742,14.502z
			 M106.198,18.36c0.47-1.387,0.94-2.812,0.778-4.341c-0.239-2.247-0.81-4.286-3.746-5.043c-0.738,0.107-1.822,0.263-2.714,0.392
			c-1.506,1.384-1.561,1.369-1.88,2.551c-0.69,2.565-0.592,5.046,0.979,7.323c0.558,0.289,1.1,0.569,1.585,0.818
			C104.145,20.187,104.517,20.318,106.198,18.36z"/>
		<path fill-rule="evenodd" clip-rule="evenodd" fill="#FFFFFF" d="M63.971,21.957c0-4.977,0-9.903,0-14.995
			c2.549,0.103,5.021-0.212,7.527,0.279c2.466,0.482,4.864,3.352,4.949,5.852c0.053,1.547,0.106,3.072-0.384,4.552
			c-0.856,2.585-2.768,3.986-5.347,4.5c-1.808,0.361-3.654,0.392-5.5,0.327C64.769,22.455,64.306,22.523,63.971,21.957z
			 M66.733,9.354c-0.203,3.324-0.135,9.399,0.114,10.716c0.663,0,1.339,0.055,2.003-0.01c1.783-0.171,3.371-0.713,4.232-2.482
			c1.31-2.686,0.727-5.724-1.438-7.691C70.059,9.084,68.427,9.394,66.733,9.354z"/>
		<path fill-rule="evenodd" clip-rule="evenodd" fill="#FFFFFF" d="M87.807,40.987c-0.91,0-1.684,0-2.458,0
			c-0.311-1.123-0.412-12.561-0.137-15.339c1.66-0.312,6.015-0.264,7.113,0.078c2.241,0.697,3.188,1.929,3.265,4.252
			c0.009,0.28,0.001,0.562,0.001,0.774c-0.964,2.251-1.052,2.349-2.953,3.358c1.403,2.248,2.804,4.496,4.271,6.848
			c-0.979,0-1.861,0-2.967,0c-1.504-1.693-2.402-4.018-3.872-5.963c-0.698,0-1.361,0-2.134,0
			C87.738,36.931,87.95,38.88,87.807,40.987z M87.899,32.577c1.689-0.102,3.363,0.329,4.536-1.129
			c0.105-0.554,0.195-1.034,0.28-1.48c-0.061-0.188-0.108-0.347-0.161-0.503c-0.436-1.304-0.676-1.517-1.999-1.575
			c-0.872-0.04-1.746-0.008-2.656-0.008C87.899,29.475,87.899,30.918,87.899,32.577z"/>
		<path fill-rule="evenodd" clip-rule="evenodd" fill="#FFFFFF" d="M119.204,15.696c1.363,2.161,2.719,4.309,4.149,6.576
			c-0.989,0.332-1.819,0.14-2.737,0.196c-1.551-1.783-2.386-4.089-3.89-6c-0.712,0-1.42,0-2.239,0c0,1.884,0,3.72,0,5.559
			c-0.953,0.635-1.804,0.596-2.71,0.074c0-5.024,0-10,0-15.148c2.438,0.117,4.814-0.296,7.187,0.324
			c3.513,0.918,3.803,5.643,1.648,7.259C120.132,14.896,119.685,15.298,119.204,15.696z M114.498,14.015
			c0.769,0,1.397,0.096,1.986-0.018c2.232-0.426,2.804-0.799,2.647-2.971c-0.012-0.165-0.041-0.33-0.067-0.527
			c-1.218-1.637-2.921-1.09-4.566-1.097C114.498,10.973,114.498,12.412,114.498,14.015z"/>
		<path fill-rule="evenodd" clip-rule="evenodd" fill="#FFFFFF" d="M58.87,38.938c2.567-0.57,3.055-2.128,3.005-4.121
			c-0.065-2.636-0.016-5.272-0.016-7.909c0-0.437,0-0.874,0-1.375c0.962,0,1.776,0,2.754,0c0,0.546,0,1.036,0,1.525
			c0,2.693-0.052,5.385,0.015,8.077c0.066,2.69-1.359,5.477-4.8,6c-1.925,0.295-3.594,0.114-5.264-0.817
			c-1.649-0.92-2.336-2.48-2.407-4.151c-0.147-3.471-0.026-6.953-0.011-10.429c0-0.042,0.067-0.082,0.168-0.203
			c0.748,0,1.563,0,2.544,0c0,0.482,0,0.915,0,1.347c0,2.581,0,5.16,0,7.74c0,0.337-0.02,0.675,0.009,1.01
			c0.191,2.258,1.277,3.261,3.563,3.307C58.654,38.941,58.879,38.938,58.87,38.938z"/>
		<path fill-rule="evenodd" clip-rule="evenodd" fill="#FFFFFF" d="M138.511,18.143c-1.801,0-3.536,0-5.43,0
			c-0.549,1.376-1.115,2.795-1.694,4.243c-0.817,0-1.531,0-2.42,0c0-0.324-0.103-0.723,0.016-1.038
			c1.723-4.615,3.473-9.221,5.221-13.827c0.058-0.153,0.137-0.299,0.238-0.512c0.869,0,1.752,0,2.743,0
			c0.899,1.52,1.335,3.302,1.989,4.992c0.66,1.702,1.318,3.408,1.904,5.137c0.576,1.701,1.496,3.302,1.753,5.242
			c-0.875,0-1.582,0-2.429,0C139.474,21.217,139.334,19.592,138.511,18.143z M137.846,15.653c-0.679-1.979-1.346-3.918-2.03-5.909
			c-0.643,1.972-1.265,3.881-1.928,5.909C135.346,15.653,136.601,15.653,137.846,15.653z"/>
		<path fill-rule="evenodd" clip-rule="evenodd" fill="#FFFFFF" d="M54.874,20.103c2.188,0,4.196,0,6.305,0c0,0.763,0,1.463,0,2.264
			c-1.485,0.225-2.986,0.086-4.478,0.095c-1.484,0.009-2.981,0.103-4.52-0.098c0-5.231,0-10.246,0-15.34c3.009,0,5.954,0,8.999,0
			c0,0.724,0,1.423,0,2.253c-2.06,0-4.11,0-6.294,0c-0.081,1.278-0.02,2.434-0.042,3.727c2.116,0,4.161,0,6.229,0
			c0.335,0.812,0.192,1.523,0.158,2.357c-2.077,0.189-4.137,0.003-6.351,0.121C54.811,16.958,54.849,18.439,54.874,20.103z"/>
		<path fill-rule="evenodd" clip-rule="evenodd" fill="#FFFFFF" d="M87.821,22.501c0-4.457,0-8.707,0-13.098
			c-1.571,0-3.058,0-4.649,0c0-0.838,0-1.54,0-2.251C84.4,6.878,91.155,6.79,95.086,7.009c0.344,0.663,0.131,1.387,0.152,2.182
			c-1.495,0.354-3.006,0.028-4.593,0.214c-0.239,1.346-0.078,2.734-0.106,4.112c-0.029,1.458-0.007,2.917-0.007,4.376
			c0,1.396,0,2.789,0,4.097C89.705,22.786,88.838,22.345,87.821,22.501z"/>
		<path fill-rule="evenodd" clip-rule="evenodd" fill="#FFFFFF" d="M146.824,20.118c2.216,0,4.225,0,6.317,0
			c0,0.774,0,1.475,0,2.346c-1.538,0.003-3.038,0.029-4.535,0.001c-1.475-0.028-2.973,0.145-4.462-0.137c0-5.234,0-10.211,0-15.284
			c0.856,0,1.67,0,2.595,0c0.182,2.166,0.056,4.34,0.08,6.509C146.842,15.678,146.824,17.804,146.824,20.118z"/>
		<path fill-rule="evenodd" clip-rule="evenodd" fill="#FFFFFF" d="M127.189,22.471c-0.941-0.103-1.79,0.282-2.59-0.389
			c0-4.972,0-9.977,0-15.06c0.885,0,1.696,0,2.59,0C127.189,12.145,127.189,17.21,127.189,22.471z"/>
		<path fill-rule="evenodd" clip-rule="evenodd" fill="#FFFFFF" d="M81.364,22.08c-0.745,0.697-1.613,0.271-2.387,0.382
			c-0.07-0.078-0.112-0.116-0.144-0.162c-0.031-0.043-0.072-0.093-0.073-0.142c-0.02-4.806-0.038-9.611-0.051-14.417
			c-0.001-0.213,0.044-0.426,0.075-0.713c0.865,0,1.678,0,2.579,0C81.364,12.075,81.364,17.077,81.364,22.08z"/>
	</g>
</g>
</svg>
