<?xml version="1.0" encoding="utf-8"?>
<!-- Generator: Adobe Illustrator 16.0.0, SVG Export Plug-In . SVG Version: 6.00 Build 0)  -->
<!DOCTYPE svg PUBLIC "-//W3C//DTD SVG 1.1//EN" "http://www.w3.org/Graphics/SVG/1.1/DTD/svg11.dtd">
<svg version="1.1" id="Layer_1" xmlns="http://www.w3.org/2000/svg" xmlns:xlink="http://www.w3.org/1999/xlink" x="0px" y="0px"
	 width="120px" height="48px" viewBox="0 0 120 48" enable-background="new 0 0 120 48" xml:space="preserve">
<g>
	<g>
		<g>
			<path fill="#FFFFFF" d="M51.488,21.878v0.349h-2.425l-3.574-5.014h-3.164v5.014h-2.404V7.845h5.938
				c3.122,0,4.992,2.116,4.992,4.684c0,1.994-1.191,3.657-3.021,4.316L51.488,21.878z M45.838,15.241
				c1.562,0,2.692-1.129,2.692-2.691c0-1.501-1.11-2.63-2.692-2.63h-3.555v5.321H45.838z"/>
		</g>
		<g>
			<path fill="#FFFFFF" d="M62.684,9.941h-6.349v3.801h5.999v2.116h-5.999v4.191h6.472v2.177h-8.875V7.845h8.752V9.941z"/>
		</g>
		<g>
			<path fill="#FFFFFF" d="M71.004,7.866c4.479,0,7.026,3.37,7.026,7.149c0,3.782-2.507,7.212-7.026,7.212h-5.198V7.866H71.004z
				 M70.963,20.05c2.979,0,4.685-2.302,4.685-5.014c0-2.712-1.727-5.012-4.664-5.012h-2.795V20.05H70.963z"/>
		</g>
		<g>
			<path fill="#FFFFFF" d="M93.889,19.925c-0.657,1.706-2.136,2.446-3.883,2.446c-2.958,0-4.541-2.383-4.541-5.137
				c0-4.663,4.746-6.513,8.302-3.862V7.166h0.965v13.273c0,0.905,0.226,1.213,1.274,1.069l0.041,0.759
				c-1.686,0.268-2.158-0.307-2.158-1.829V19.925z M93.767,14.399c-3.041-2.547-7.315-1.357-7.315,2.835
				c0,2.24,1.212,4.253,3.678,4.253c2.178,0,3.575-1.706,3.638-3.78V14.399z"/>
		</g>
		<g>
			<path fill="#FFFFFF" d="M107.058,17.317h-8.403c0,2.855,1.787,4.17,4.396,4.232c1.336-0.021,2.465-0.328,3.431-0.759l0.205,0.841
				c-1.149,0.514-2.464,0.801-3.615,0.801c-3.328,0-5.567-1.951-5.403-5.506c0.164-3.019,2.179-4.807,5.014-4.807
				C105.887,12.14,107.612,14.009,107.058,17.317z M106.235,16.474c0.227-2.342-1.377-3.533-3.596-3.533
				c-2.218,0-3.739,1.315-3.964,3.533H106.235z"/>
		</g>
	</g>
	<g>
		<g>
			<path fill="#FFFFFF" d="M52.495,26.2h0.883v14.423h-2.403v-8.999l-4.15,5.321h-0.329l-4.17-5.321v8.999h-2.404V26.2h0.884
				l5.855,7.437L52.495,26.2z"/>
		</g>
		<g>
			<path fill="#FFFFFF" d="M65.704,28.335h-6.35v3.803h6v2.116h-6v4.191h6.473v2.178h-8.876V26.24h8.753V28.335z"/>
		</g>
		<g>
			<path fill="#FFFFFF" d="M74.024,26.262c4.479,0,7.025,3.369,7.025,7.148c0,3.782-2.507,7.213-7.025,7.213h-5.198V26.262H74.024z
				 M73.982,38.445c2.979,0,4.685-2.302,4.685-5.014s-1.726-5.014-4.664-5.014h-2.794v10.027H73.982z"/>
		</g>
		<g>
			<path fill="#FFFFFF" d="M89.533,38.691v1.932h-6.944v-1.932h2.281v-10.54h-2.096V26.24h6.575v1.911h-2.097v10.54H89.533z"/>
		</g>
		<g>
			<path fill="#FFFFFF" d="M98.368,40.868c-3.944,0-7.294-2.752-7.294-7.437s3.431-7.437,7.335-7.437
				c3.924,0,7.313,2.752,7.313,7.437C105.723,37.808,102.703,40.868,98.368,40.868z M98.409,38.608c2.691,0,4.932-1.828,4.932-5.177
				c0-3.287-2.22-5.198-4.911-5.198c-2.712,0-4.931,1.869-4.931,5.198C93.499,36.78,95.697,38.608,98.409,38.608z"/>
		</g>
		<g>
			<path fill="#FFFFFF" d="M109.934,36.535c0.103,1.621,1.87,2.217,3.431,2.217c1.521,0,3.329-0.45,3.329-2.238
				c0-1.89-1.952-2.076-3.616-2.24c-2.63-0.227-5.239-1.068-5.239-3.944c0-2.958,2.609-4.354,5.404-4.354
				c2.731,0,5.32,1.232,5.383,4.17h-2.261c-0.103-1.541-1.725-2.035-3.144-2.035c-1.314,0-3.021,0.534-3.021,2.158
				c0,1.623,1.623,1.828,3.287,2.055c2.918,0.327,5.589,0.904,5.589,4.213c0,3.162-2.979,4.354-5.671,4.354
				c-2.814,0.061-5.752-1.336-5.814-4.354H109.934z"/>
		</g>
	</g>
	<g>
		<path fill="#FFFFFF" d="M28.669,8.947V38.94L2.694,23.942L28.669,8.947 M29.377,7.72L1.279,23.942l28.098,16.225V7.72L29.377,7.72
			z"/>
	</g>
	<g>
		<polygon fill="#FFFFFF" points="0.924,40.78 0.924,7.109 15.889,15.735 15.534,16.349 1.633,8.333 1.633,39.552 15.475,31.53 
			15.829,32.144 		"/>
	</g>
	<g>
		<polygon fill="#FFFFFF" points="28.837,32.144 14.631,23.942 28.845,15.735 29.199,16.349 16.046,23.942 29.19,31.53 		"/>
	</g>
</g>
</svg>
