<?xml version="1.0" encoding="utf-8"?>
<!-- Generator: Adobe Illustrator 16.0.0, SVG Export Plug-In . SVG Version: 6.00 Build 0)  -->
<!DOCTYPE svg PUBLIC "-//W3C//DTD SVG 1.1//EN" "http://www.w3.org/Graphics/SVG/1.1/DTD/svg11.dtd">
<svg version="1.1" id="Layer_1" xmlns="http://www.w3.org/2000/svg" xmlns:xlink="http://www.w3.org/1999/xlink" x="0px" y="0px"
	 width="188px" height="48px" viewBox="0 0 188 48" enable-background="new 0 0 188 48" xml:space="preserve">
<g>
	<path fill="#FFFFFF" d="M4.313,10.361v11.462c0,3.169,0.953,6.106,4.688,6.106c3.735,0,4.688-2.938,4.688-6.106V10.361h2.421
		v12.288c0,4.275-2.653,7.547-7.109,7.547c-4.456,0-7.109-3.272-7.109-7.547V10.361H4.313z"/>
	<path fill="#FFFFFF" d="M19.691,9.435l14.58,15.274V10.361h2.421v20.223L22.114,15.307v14.476h-2.422V9.435z"/>
	<path fill="#FFFFFF" d="M52.69,29.782h-2.936l-5.719-8.216H43.03v8.216h-2.421V10.361h2.936c1.726,0,3.581,0.026,5.126,0.901
		c1.623,0.953,2.55,2.783,2.55,4.637c0,2.783-1.855,5.1-4.662,5.436L52.69,29.782z M43.03,19.558h0.773
		c2.473,0,5.151-0.463,5.151-3.555c0-3.04-2.885-3.478-5.281-3.478H43.03V19.558z"/>
	<path fill="#FFFFFF" d="M54.829,9.435l14.58,15.274V10.361h2.421v20.223L57.25,15.307v14.476h-2.422V9.435z"/>
	<path fill="#FFFFFF" d="M83.68,22.158l4.715-11.796h5.486l-8.294,19.421H81.67l-8.166-19.421h5.487L83.68,22.158z"/>
	<path fill="#FFFFFF" d="M100.191,29.782h-5.048V10.361h5.048V29.782z"/>
	<path fill="#FFFFFF" d="M119.639,29.782h-6.284l-4.765-7.468h-0.052v7.468h-5.049V10.361h7.547c3.84,0,6.749,1.828,6.749,5.977
		c0,2.678-1.494,4.997-4.249,5.485L119.639,29.782z M108.538,19.068h0.489c1.647,0,3.504-0.31,3.504-2.422s-1.856-2.421-3.504-2.421
		h-0.489V19.068z"/>
	<path fill="#FFFFFF" d="M128.733,29.782h-5.047V14.637h-4.174v-4.276h13.395v4.276h-4.174V29.782z"/>
	<path fill="#FFFFFF" d="M151.584,10.361v10.921c0,2.499-0.104,4.972-2.036,6.852c-1.622,1.597-4.174,2.166-6.439,2.166
		c-2.267,0-4.816-0.569-6.439-2.166c-1.934-1.88-2.035-4.353-2.035-6.852V10.361h5.049v10.226c0,2.525,0.181,5.28,3.426,5.28
		c3.248,0,3.425-2.755,3.425-5.28V10.361H151.584z"/>
	<path fill="#FFFFFF" d="M159.726,26.408l-1.339,3.374h-5.36l7.472-19.421h5.512l7.314,19.421h-5.382l-1.263-3.374H159.726z
		 M163.252,16.363h-0.051l-2.086,6.182h4.2L163.252,16.363z"/>
	<path fill="#FFFFFF" d="M179.947,25.508H186v4.274h-11.103V10.361h5.05V25.508z"/>
</g>
<g>
	<path fill="#FFFFFF" d="M6.131,43.491H5.312l-1.596-2.293h-0.28v2.293H2.76v-5.419H3.58c0.481,0,0.999,0.007,1.43,0.252
		c0.453,0.266,0.711,0.775,0.711,1.293c0,0.776-0.518,1.423-1.301,1.517L6.131,43.491z M3.436,40.638h0.216
		c0.69,0,1.438-0.129,1.438-0.991c0-0.849-0.805-0.971-1.474-0.971h-0.18V40.638z"/>
	<path fill="#FFFFFF" d="M9.996,36.656l-1.179,1.071L8.5,37.533l0.898-1.193L9.996,36.656z M9.37,43.491H8.695v-5.419H9.37V43.491z"
		/>
	<path fill="#FFFFFF" d="M17.731,40.782c0,1.609-1.272,2.824-2.838,2.824c-1.567,0-2.839-1.215-2.839-2.824
		c0-1.553,1.286-2.825,2.839-2.825C16.445,37.957,17.731,39.229,17.731,40.782z M17.056,40.782c0-1.193-0.891-2.192-2.163-2.192
		c-1.272,0-2.164,0.999-2.164,2.192c0,1.235,0.992,2.191,2.164,2.191C16.064,42.974,17.056,42.018,17.056,40.782z"/>
	<path fill="#FFFFFF" d="M24.505,37.813l4.068,4.262v-4.003h0.676v5.642l-4.068-4.262v4.039h-0.676V37.813z"/>
	<path fill="#FFFFFF" d="M32.267,38.072h2.911v0.618h-2.235v1.517h2.17v0.618h-2.17v2.048h2.235v0.618h-2.911V38.072z"/>
	<path fill="#FFFFFF" d="M43.001,40.76v0.216c0,1.488-1.049,2.631-2.566,2.631s-2.738-1.309-2.738-2.811
		c0-1.56,1.25-2.839,2.81-2.839c0.841,0,1.675,0.381,2.207,1.05l-0.475,0.452c-0.388-0.531-1.042-0.884-1.703-0.884
		c-1.214,0-2.163,0.984-2.163,2.199c0,1.136,0.934,2.214,2.105,2.214c0.841,0,1.747-0.726,1.775-1.61h-1.401V40.76H43.001z"/>
	<path fill="#FFFFFF" d="M49.095,43.491h-0.819l-1.596-2.293H46.4v2.293h-0.675v-5.419h0.819c0.481,0,0.999,0.007,1.43,0.252
		c0.453,0.266,0.711,0.775,0.711,1.293c0,0.776-0.518,1.423-1.301,1.517L49.095,43.491z M46.4,40.638h0.216
		c0.69,0,1.438-0.129,1.438-0.991c0-0.849-0.805-0.971-1.474-0.971H46.4V40.638z"/>
	<path fill="#FFFFFF" d="M56.977,40.782c0,1.609-1.272,2.824-2.838,2.824c-1.567,0-2.839-1.215-2.839-2.824
		c0-1.553,1.286-2.825,2.839-2.825C55.691,37.957,56.977,39.229,56.977,40.782z M56.302,40.782c0-1.193-0.891-2.192-2.163-2.192
		c-1.272,0-2.164,0.999-2.164,2.192c0,1.235,0.992,2.191,2.164,2.191C55.31,42.974,56.302,42.018,56.302,40.782z"/>
	<path fill="#FFFFFF" d="M64.397,38.072v3.198c0,0.884,0.266,1.703,1.308,1.703s1.308-0.819,1.308-1.703v-3.198h0.675V41.5
		c0,1.193-0.74,2.106-1.983,2.106c-1.244,0-1.984-0.913-1.984-2.106v-3.428H64.397z"/>
	<path fill="#FFFFFF" d="M70.613,37.813l4.068,4.262v-4.003h0.676v5.642l-4.068-4.262v4.039h-0.676V37.813z"/>
	<path fill="#FFFFFF" d="M79.028,43.491h-0.675v-5.419h0.675V43.491z"/>
	<path fill="#FFFFFF" d="M83.883,42.083l1.61-4.011h0.74l-2.35,5.706l-2.357-5.706h0.74L83.883,42.083z"/>
	<path fill="#FFFFFF" d="M88.747,38.072h2.911v0.618h-2.235v1.517h2.17v0.618h-2.17v2.048h2.235v0.618h-2.911V38.072z"/>
	<path fill="#FFFFFF" d="M97.915,43.491h-0.819L95.5,41.198h-0.28v2.293h-0.676v-5.419h0.819c0.481,0,0.999,0.007,1.431,0.252
		c0.452,0.266,0.711,0.775,0.711,1.293c0,0.776-0.517,1.423-1.301,1.517L97.915,43.491z M95.22,40.638h0.216
		c0.689,0,1.438-0.129,1.438-0.991c0-0.849-0.805-0.971-1.474-0.971h-0.18V40.638z"/>
	<path fill="#FFFFFF" d="M102.907,39.1c-0.201-0.337-0.46-0.51-0.869-0.51c-0.432,0-0.905,0.295-0.905,0.769
		c0,0.425,0.416,0.647,0.754,0.776l0.389,0.151c0.769,0.302,1.344,0.726,1.344,1.631c0,0.985-0.762,1.689-1.732,1.689
		c-0.877,0-1.56-0.647-1.674-1.517l0.683-0.144c-0.008,0.597,0.467,1.027,1.049,1.027s0.999-0.488,0.999-1.057
		c0-0.582-0.467-0.833-0.935-1.027l-0.373-0.158c-0.618-0.266-1.179-0.618-1.179-1.373c0-0.876,0.776-1.401,1.596-1.401
		c0.604,0,1.099,0.295,1.394,0.819L102.907,39.1z"/>
	<path fill="#FFFFFF" d="M107.067,43.491h-0.676v-5.419h0.676V43.491z"/>
	<path fill="#FFFFFF" d="M110.074,38.072h1.121c1.66,0,3.04,0.877,3.04,2.681c0,1.847-1.351,2.738-3.062,2.738h-1.1V38.072z
		 M110.75,42.873h0.237c1.38,0,2.572-0.518,2.572-2.091c0-1.582-1.192-2.092-2.572-2.092h-0.237V42.873z"/>
	<path fill="#FFFFFF" d="M117.734,42.133l-0.618,1.358h-0.726l2.588-5.648l2.587,5.648h-0.726l-0.618-1.358H117.734z
		 M118.979,39.323l-0.964,2.191h1.927L118.979,39.323z"/>
	<path fill="#FFFFFF" d="M124.015,38.072h1.121c1.66,0,3.04,0.877,3.04,2.681c0,1.847-1.351,2.738-3.062,2.738h-1.1V38.072z
		 M124.69,42.873h0.237c1.38,0,2.572-0.518,2.572-2.091c0-1.582-1.192-2.092-2.572-2.092h-0.237V42.873z"/>
	<path fill="#FFFFFF" d="M134.97,37.813l4.067,4.262v-4.003h0.676v5.642l-4.068-4.262v4.039h-0.675V37.813z"/>
	<path fill="#FFFFFF" d="M143.5,42.133l-0.618,1.358h-0.726l2.588-5.648l2.587,5.648h-0.726l-0.618-1.358H143.5z M144.744,39.323
		l-0.964,2.191h1.927L144.744,39.323z"/>
	<path fill="#FFFFFF" d="M153.783,39.107c-0.388-0.345-0.92-0.532-1.43-0.532c-1.215,0-2.142,1.014-2.142,2.214
		c0,1.186,0.92,2.199,2.127,2.199c0.532,0,1.042-0.201,1.444-0.561v0.798c-0.417,0.244-0.948,0.381-1.423,0.381
		c-1.545,0-2.824-1.229-2.824-2.796c0-1.603,1.286-2.854,2.882-2.854c0.475,0,0.956,0.115,1.365,0.367V39.107z"/>
	<path fill="#FFFFFF" d="M157.297,43.491h-0.676v-5.419h0.676V43.491z"/>
	<path fill="#FFFFFF" d="M165.658,40.782c0,1.609-1.272,2.824-2.839,2.824c-1.567,0-2.839-1.215-2.839-2.824
		c0-1.553,1.286-2.825,2.839-2.825C164.371,37.957,165.658,39.229,165.658,40.782z M164.982,40.782c0-1.193-0.892-2.192-2.163-2.192
		c-1.272,0-2.163,0.999-2.163,2.192c0,1.235,0.991,2.191,2.163,2.191C163.99,42.974,164.982,42.018,164.982,40.782z"/>
	<path fill="#FFFFFF" d="M168.303,37.813l4.067,4.262v-4.003h0.676v5.642l-4.068-4.262v4.039h-0.675V37.813z"/>
	<path fill="#FFFFFF" d="M176.833,42.133l-0.618,1.358h-0.726l2.587-5.648l2.588,5.648h-0.726l-0.618-1.358H176.833z
		 M178.076,39.323l-0.963,2.191h1.927L178.076,39.323z"/>
	<path fill="#FFFFFF" d="M183.847,42.873h1.646v0.618h-2.321v-5.419h0.676V42.873z"/>
</g>
</svg>
